PathFileType	4	(X/Y/Z)	/Users/itak/Documents/Research/Walk-IL/dataset/trc/00166_00008.trc
DataRate	CameraRate	NumFrames	NumMarkers	Units	OrigDataRate	OrigDataStartFrame	OrigNumFrames
100.000000	100.000000	4	53	mm	100.000000	479	639
Frame#	Time	RPSI			LPSI			L3			STRN			T10			C7			CLAV			RBAK			LBAK			LSHO			LUPA			LAEL			LAOL			LWTS			LWPS			LFRA			LIFD			LHPS			LHTS			RSHO			RUPA			RAEL			RAOL			RWTS			RWPS			RFRA			RIFD			RHTS			RHPS			RBHD			LFHD			RFHD			LBHD			LHIP			RHIP			RASI			LASI			LKNE			LTHI			LANK			LTIP			LTOE			LMT1			LMT5			LHEE			RKNE			RTHI			RANK			RTIP			RTOE			RMT1			RMT5			RHEE			
		X1	Y1	Z1	X2	Y2	Z2	X3	Y3	Z3	X4	Y4	Z4	X5	Y5	Z5	X6	Y6	Z6	X7	Y7	Z7	X8	Y8	Z8	X9	Y9	Z9	X10	Y10	Z10	X11	Y11	Z11	X12	Y12	Z12	X13	Y13	Z13	X14	Y14	Z14	X15	Y15	Z15	X16	Y16	Z16	X17	Y17	Z17	X18	Y18	Z18	X19	Y19	Z19	X20	Y20	Z20	X21	Y21	Z21	X22	Y22	Z22	X23	Y23	Z23	X24	Y24	Z24	X25	Y25	Z25	X26	Y26	Z26	X27	Y27	Z27	X28	Y28	Z28	X29	Y29	Z29	X30	Y30	Z30	X31	Y31	Z31	X32	Y32	Z32	X33	Y33	Z33	X34	Y34	Z34	X35	Y35	Z35	X36	Y36	Z36	X37	Y37	Z37	X38	Y38	Z38	X39	Y39	Z39	X40	Y40	Z40	X41	Y41	Z41	X42	Y42	Z42	X43	Y43	Z43	X44	Y44	Z44	X45	Y45	Z45	X46	Y46	Z46	X47	Y47	Z47	X48	Y48	Z48	X49	Y49	Z49	X50	Y50	Z50	X51	Y51	Z51	X52	Y52	Z52	X53	Y53	Z53	

480	4.79	430.1399230957031	1039.447875976562	49.70389556884766	426.2278137207031	1040.498168945312	-74.96026611328125	427.3563537597656	1075.807739257812	-12.15624809265137	677.3784790039062	1302.345336914062	-17.8879222869873	383.9816284179688	1226.03369140625	-22.99889945983887	427.6289367675781	1500.805297851562	-31.51399040222168	639.2608642578125	1413.269287109375	-24.70894241333008	375.886962890625	1317.678955078125	73.71939086914062	425.9984741210938	1477.433959960938	-132.3485412597656	505.3359985351562	1473.361206054688	-210.1342926025391	482.7392578125	1338.225219726562	-283.7450561523438	507.3965759277344	1123.41650390625	-295.41748046875	477.031494140625	1104.903198242188	-214.4157257080078	624.4696044921875	894.1787109375	-290.0647583007812	534.9468994140625	872.194091796875	-312.4185180664062	519.6604614257812	1014.255737304688	-311.6409606933594	641.856201171875	707.4175415039062	-269.0202331542969	556.5482177734375	802.0829467773438	-312.9675598144531	629.8985595703125	814.1552124023438	-311.6476135253906	488.9890747070312	1480.348266601562	150.2557983398438	470.5782165527344	1411.642456054688	217.1738128662109	462.1032104492188	1125.190307617188	267.95703125	470.4999389648438	1116.272827148438	171.6481323242188	604.1781005859375	900.1332397460938	268.5562438964844	527.893310546875	885.2625122070312	310.3060607910156	487.1068420410156	1055.046630859375	290.5472717285156	618.5513916015625	710.3569946289062	251.3934478759766	628.4288330078125	805.26513671875	279.9482116699219	554.7450561523438	801.6837158203125	310.9290771484375	451.6085205078125	1648.49951171875	55.34864807128906	605.7886352539062	1742.615844726562	-68.37267303466797	606.1958618164062	1729.995361328125	60.21747207641602	441.1503601074219	1668.372436523438	-81.32232666015625	526.1017456054688	979.7017822265625	-196.064697265625	592.9310302734375	1004.702209472656	164.3347625732422	667.59521484375	1035.1103515625	103.8966827392578	647.0656127929688	1024.683715820312	-153.8907470703125	516.88720703125	480.5509033203125	-198.2012634277344	530.9269409179688	627.2341918945312	-207.5073089599609	138.0022430419922	187.6519165039062	-128.3104248046875	335.2564392089844	326.1492919921875	-179.3399810791016	266.8568420410156	33.51769256591797	-119.4944152832031	246.8843688964844	61.64009857177734	-71.43582153320312	182.2911987304688	92.09245300292969	-172.2528533935547	127.8167877197266	233.2988586425781	-56.22859573364258	740.10107421875	524.2810668945312	119.706787109375	696.0917358398438	789.6967163085938	162.8091430664062	723.689453125	34.78697204589844	113.6127700805664	771.7483520507812	406.012939453125	98.93497467041016	942.1339721679688	44.06928634643555	64.09878540039062	884.39404296875	43.04256057739258	22.89170074462891	835.9142456054688	33.00010299682617	140.1689605712891	668.1057739257812	39.3585319519043	46.49222564697266	
481	4.8	438.6812133789062	1040.89892578125	51.76644134521484	434.5798034667969	1041.534790039062	-72.97029113769531	435.950439453125	1077.036010742188	-10.19790172576904	685.8366088867188	1303.715942382812	-16.8997974395752	392.4638061523438	1227.281372070312	-21.15899848937988	435.9459533691406	1502.057983398438	-30.25333213806152	647.6348266601562	1414.61474609375	-23.71138191223145	384.2646484375	1318.989868164062	75.37319946289062	434.2144470214844	1478.594116210938	-131.0324859619141	513.4640502929688	1474.548950195312	-208.9781646728516	490.9316711425781	1339.260375976562	-282.2900695800781	515.4238891601562	1124.46337890625	-293.33251953125	485.0449829101562	1106.276245117188	-212.1966857910156	629.0294799804688	893.438232421875	-287.53466796875	539.124267578125	873.086181640625	-309.8768920898438	526.2874145507812	1015.332824707031	-309.2503662109375	642.2694702148438	706.09033203125	-264.8832702636719	559.1983642578125	802.5225219726562	-309.9932861328125	632.7955932617188	812.9434204101562	-308.4277038574219	497.6360778808594	1481.76611328125	151.4480438232422	479.4475402832031	1413.1611328125	218.5517120361328	472.078369140625	1126.7861328125	270.7820739746094	479.8488464355469	1117.754638671875	174.4913330078125	617.0277099609375	903.5438842773438	271.2738037109375	541.0250244140625	887.5518188476562	313.179443359375	497.9004211425781	1056.804809570312	293.4463500976562	634.5715942382812	714.1303100585938	254.7740020751953	642.864990234375	809.2785034179688	283.0082702636719	569.2122192382812	804.4776000976562	314.020263671875	459.6909484863281	1649.69580078125	56.59178924560547	613.8848266601562	1743.998779296875	-67.18003082275391	614.355712890625	1731.293579101562	61.43283843994141	449.2693481445312	1669.703002929688	-80.08332824707031	534.6148681640625	980.5023803710938	-194.2314758300781	601.94091796875	1005.887817382812	165.8123626708984	676.5010375976562	1036.282470703125	105.1503295898438	655.1849975585938	1026.095703125	-152.631103515625	533.806396484375	480.739990234375	-199.1912689208984	544.7050170898438	627.9073486328125	-207.4890594482422	150.1595001220703	195.6327056884766	-125.7431564331055	350.0293884277344	329.2165222167969	-178.8671722412109	275.6964111328125	33.68491744995117	-121.2916107177734	257.2437133789062	65.79025268554688	-72.61751556396484	191.2975616455078	99.40922546386719	-171.1898956298828	141.8610382080078	240.547607421875	-53.15266799926758	744.6737670898438	523.9510498046875	120.1192626953125	703.6026611328125	789.8377685546875	163.8411407470703	723.9788208007812	35.2918586730957	113.3379364013672	775.2730102539062	405.4550170898438	98.87505340576172	942.9942626953125	42.45005798339844	63.65566253662109	884.9191284179688	42.09076309204102	22.56554222106934	836.1527709960938	33.34468460083008	140.1066436767578	668.3821411132812	39.52539825439453	46.22096252441406	
482	4.81	447.034423828125	1042.134887695312	53.625244140625	442.7052001953125	1042.521484375	-71.14329528808594	444.2716979980469	1078.20654296875	-8.368415832519531	694.0581665039062	1304.95703125	-16.02408790588379	400.6993713378906	1228.509399414062	-19.35116004943848	444.1250305175781	1503.26953125	-29.05104446411133	655.8302001953125	1415.848510742188	-22.84181594848633	392.4309997558594	1320.328979492188	77.0142822265625	442.2205200195312	1479.675415039062	-129.7677917480469	521.3497314453125	1475.588500976562	-207.9064025878906	498.8318481445312	1340.128295898438	-280.8794250488281	523.2869873046875	1125.37158203125	-291.4340515136719	492.8418579101562	1107.432373046875	-210.2100219726562	633.8428344726562	892.8056640625	-285.01611328125	543.7023315429688	873.9443359375	-307.6505432128906	532.9793701171875	1016.297119140625	-307.0903015136719	643.1660766601562	704.96728515625	-260.7561340332031	562.3689575195312	803.0051879882812	-307.3199462890625	636.1548461914062	811.9287719726562	-305.2271728515625	506.2190856933594	1483.16943359375	152.5674285888672	488.270751953125	1414.679077148438	219.8850402832031	481.9606323242188	1128.383544921875	273.5816345214844	489.0445556640625	1119.278198242188	177.2741394042969	629.84814453125	907.0620727539062	273.9617919921875	554.1355590820312	889.8992919921875	315.9924011230469	508.603759765625	1058.576538085938	296.3073425292969	650.7437744140625	718.1019287109375	258.1541748046875	657.3463745117188	813.4718627929688	286.0707702636719	583.726318359375	807.377685546875	317.0676574707031	467.7229614257812	1650.8779296875	57.63827514648438	621.8675537109375	1745.299072265625	-66.12262725830078	622.4005126953125	1732.52587890625	62.5185432434082	457.2750244140625	1670.940673828125	-78.97201538085938	543.02734375	981.28271484375	-192.5497131347656	610.6273803710938	1006.971862792969	167.1726379394531	685.1072998046875	1037.382080078125	106.313835144043	663.0983276367188	1027.439819335938	-151.4645843505859	550.7157592773438	481.0329284667969	-200.0274353027344	558.4555053710938	628.6567993164062	-207.4644927978516	163.0384826660156	202.7177734375	-123.2766418457031	365.1175842285156	332.081298828125	-178.2595672607422	286.3827514648438	34.68087768554688	-123.2204284667969	269.2040405273438	69.99787139892578	-73.82285308837891	201.9590606689453	106.3817291259766	-170.3189392089844	156.1375427246094	246.7478637695312	-50.20544052124023	749.1331787109375	523.614990234375	120.4414138793945	710.8677368164062	789.9609375	164.7328796386719	724.1475219726562	35.61964797973633	112.9975051879883	778.7224731445312	404.9078369140625	98.68486785888672	943.706298828125	41.25972747802734	63.28428649902344	885.3896484375	41.36614608764648	22.28741455078125	836.330810546875	33.61690139770508	140.0303649902344	668.6267700195312	39.66012573242188	45.95725631713867	
483	4.82	455.2198181152344	1043.15380859375	55.26348114013672	450.6199645996094	1043.464721679688	-69.50695037841797	452.3231506347656	1079.324340820312	-6.688552856445312	702.0486450195312	1306.093505859375	-15.24112129211426	408.6997375488281	1229.721069335938	-17.59720420837402	452.1570434570312	1504.449829101562	-27.90681457519531	663.8428344726562	1416.989501953125	-22.09002494812012	400.4049072265625	1321.696899414062	78.62721252441406	450.0164489746094	1480.693237304688	-128.5555267333984	528.9937744140625	1476.502685546875	-206.9138488769531	506.4282531738281	1340.85888671875	-279.5196228027344	530.9253540039062	1126.160400390625	-289.7025451660156	500.4007873535156	1108.40673828125	-208.4220123291016	638.9122924804688	892.3064575195312	-282.5107727050781	548.6846923828125	874.7631225585938	-305.7290344238281	539.6866455078125	1017.154724121094	-305.1450805664062	644.5879516601562	704.0757446289062	-256.7296142578125	566.1033935546875	803.5235595703125	-304.9531555175781	640.0197143554688	811.1453857421875	-302.0759582519531	514.72216796875	1484.575927734375	153.6105041503906	497.0358276367188	1416.216186523438	221.1719207763672	491.7599487304688	1130.003540039062	276.3395690917969	498.1209106445312	1120.8369140625	179.9951324462891	642.6062622070312	910.6859741210938	276.6038513183594	567.1943359375	892.3214111328125	318.7307434082031	519.2217407226562	1060.383422851562	299.1138000488281	666.973876953125	722.2678833007812	261.4928588867188	671.8082885742188	817.82861328125	289.1076354980469	598.2362060546875	810.392333984375	320.0491943359375	475.7131958007812	1652.062622070312	58.49809265136719	629.737060546875	1746.524536132812	-65.20284271240234	630.3347778320312	1733.702514648438	63.46796798706055	465.1642456054688	1672.101684570312	-77.98355102539062	551.3136596679688	982.0775756835938	-191.0541229248047	618.9821166992188	1007.956481933594	168.4362945556641	693.4031372070312	1038.432861328125	107.4245147705078	670.8330688476562	1028.730590820312	-150.3555297851562	567.5084838867188	481.450439453125	-200.7008361816406	572.1517333984375	629.4833374023438	-207.4289703369141	176.6391448974609	208.6498107910156	-121.0073089599609	380.4512329101562	334.6732482910156	-177.5555114746094	299.0302124023438	36.51063537597656	-125.1429748535156	282.7715148925781	74.06223297119141	-74.95963287353516	214.3408355712891	112.6774215698242	-169.6634521484375	170.6379547119141	251.7317810058594	-47.50457382202148	753.4942626953125	523.2755126953125	120.655876159668	717.9151000976562	790.0675659179688	165.4828186035156	724.2076416015625	35.77840805053711	112.576057434082	782.094482421875	404.37353515625	98.38310241699219	944.2866821289062	40.44366836547852	62.96162796020508	885.8065185546875	40.84286499023438	22.03103446960449	836.4542236328125	33.82036972045898	139.9294128417969	668.8319702148438	39.75310897827148	45.69778060913086	
